<svg data-v-fde0c5aa="" xmlns="http://www.w3.org/2000/svg" viewBox="0 0 300 300" class="iconLeft"><!----><defs data-v-fde0c5aa=""><!----></defs><rect data-v-fde0c5aa="" fill="transparent" x="0" y="0" width="300px" height="300px" class="logo-background-square"></rect><defs data-v-fde0c5aa=""><!----></defs><g data-v-fde0c5aa="" id="49ab8cec-478b-4ed6-96c2-485a5fb037aa" fill="#000000" transform="matrix(2.5243113040924072,0,0,2.5243113040924072,138.80781707734246,128.77054159367574)"><path d="M4.33 13.66L4.33 13.66Q3.22 13.66 2.19 13.32L2.19 13.32L2.19 13.32Q1.16 12.98 0.57 12.43L0.57 12.43L1.09 11.34L1.09 11.34Q1.65 11.84 2.53 12.16L2.53 12.16L2.53 12.16Q3.40 12.47 4.33 12.47L4.33 12.47L4.33 12.47Q5.54 12.47 6.15 12.06L6.15 12.06L6.15 12.06Q6.75 11.65 6.75 10.96L6.75 10.96L6.75 10.96Q6.75 10.46 6.42 10.14L6.42 10.14L6.42 10.14Q6.09 9.83 5.61 9.66L5.61 9.66L5.61 9.66Q5.12 9.49 4.24 9.28L4.24 9.28L4.24 9.28Q3.14 9.02 2.46 8.75L2.46 8.75L2.46 8.75Q1.78 8.48 1.29 7.93L1.29 7.93L1.29 7.93Q0.81 7.38 0.81 6.44L0.81 6.44L0.81 6.44Q0.81 5.66 1.23 5.03L1.23 5.03L1.23 5.03Q1.64 4.40 2.48 4.02L2.48 4.02L2.48 4.02Q3.32 3.64 4.56 3.64L4.56 3.64L4.56 3.64Q5.43 3.64 6.27 3.86L6.27 3.86L6.27 3.86Q7.11 4.09 7.71 4.51L7.71 4.51L7.25 5.63L7.25 5.63Q6.64 5.24 5.94 5.03L5.94 5.03L5.94 5.03Q5.24 4.83 4.56 4.83L4.56 4.83L4.56 4.83Q3.37 4.83 2.78 5.26L2.78 5.26L2.78 5.26Q2.18 5.70 2.18 6.38L2.18 6.38L2.18 6.38Q2.18 6.89 2.52 7.20L2.52 7.20L2.52 7.20Q2.86 7.52 3.35 7.69L3.35 7.69L3.35 7.69Q3.85 7.87 4.70 8.06L4.70 8.06L4.70 8.06Q5.81 8.33 6.48 8.60L6.48 8.60L6.48 8.60Q7.15 8.86 7.64 9.41L7.64 9.41L7.64 9.41Q8.12 9.95 8.12 10.88L8.12 10.88L8.12 10.88Q8.12 11.65 7.70 12.29L7.70 12.29L7.70 12.29Q7.28 12.92 6.43 13.29L6.43 13.29L6.43 13.29Q5.57 13.66 4.33 13.66L4.33 13.66ZM13.93 6.06L13.93 6.06Q15.34 6.06 16.18 6.88L16.18 6.88L16.18 6.88Q17.01 7.70 17.01 9.28L17.01 9.28L17.01 13.55L15.67 13.55L15.67 9.44L15.67 9.44Q15.67 8.36 15.15 7.81L15.15 7.81L15.15 7.81Q14.63 7.27 13.66 7.27L13.66 7.27L13.66 7.27Q12.57 7.27 11.94 7.90L11.94 7.90L11.94 7.90Q11.31 8.54 11.31 9.73L11.31 9.73L11.31 13.55L9.97 13.55L9.97 3.16L11.31 3.16L11.31 7.18L11.31 7.18Q11.73 6.65 12.41 6.36L12.41 6.36L12.41 6.36Q13.09 6.06 13.93 6.06L13.93 6.06ZM22.20 6.06L22.20 6.06Q23.74 6.06 24.56 6.82L24.56 6.82L24.56 6.82Q25.38 7.57 25.38 9.07L25.38 9.07L25.38 13.55L24.11 13.55L24.11 12.57L24.11 12.57Q23.77 13.09 23.15 13.36L23.15 13.36L23.15 13.36Q22.53 13.64 21.67 13.64L21.67 13.64L21.67 13.64Q20.43 13.64 19.68 13.03L19.68 13.03L19.68 13.03Q18.93 12.43 18.93 11.45L18.93 11.45L18.93 11.45Q18.93 10.47 19.64 9.88L19.64 9.88L19.64 9.88Q20.36 9.28 21.91 9.28L21.91 9.28L24.04 9.28L24.04 9.02L24.04 9.02Q24.04 8.15 23.53 7.69L23.53 7.69L23.53 7.69Q23.03 7.22 22.05 7.22L22.05 7.22L22.05 7.22Q21.39 7.22 20.76 7.44L20.76 7.44L20.76 7.44Q20.13 7.66 19.70 8.02L19.70 8.02L19.14 7.01L19.14 7.01Q19.71 6.55 20.51 6.31L20.51 6.31L20.51 6.31Q21.31 6.06 22.20 6.06L22.20 6.06ZM21.90 12.60L21.90 12.60Q22.67 12.60 23.23 12.26L23.23 12.26L23.23 12.26Q23.79 11.91 24.04 11.28L24.04 11.28L24.04 10.25L21.97 10.25L21.97 10.25Q20.26 10.25 20.26 11.40L20.26 11.40L20.26 11.40Q20.26 11.96 20.69 12.28L20.69 12.28L20.69 12.28Q21.13 12.60 21.90 12.60L21.90 12.60ZM29.16 7.38L29.16 7.38Q29.51 6.73 30.20 6.40L30.20 6.40L30.20 6.40Q30.88 6.06 31.86 6.06L31.86 6.06L31.86 7.36L31.86 7.36Q31.75 7.35 31.56 7.35L31.56 7.35L31.56 7.35Q30.46 7.35 29.84 8.00L29.84 8.00L29.84 8.00Q29.22 8.65 29.22 9.86L29.22 9.86L29.22 13.55L27.87 13.55L27.87 6.13L29.16 6.13L29.16 7.38ZM36.79 13.64L36.79 13.64Q35.69 13.64 34.80 13.15L34.80 13.15L34.80 13.15Q33.92 12.66 33.43 11.79L33.43 11.79L33.43 11.79Q32.93 10.93 32.93 9.84L32.93 9.84L32.93 9.84Q32.93 8.75 33.43 7.89L33.43 7.89L33.43 7.89Q33.92 7.03 34.80 6.54L34.80 6.54L34.80 6.54Q35.69 6.06 36.79 6.06L36.79 6.06L36.79 6.06Q37.90 6.06 38.77 6.54L38.77 6.54L38.77 6.54Q39.65 7.03 40.15 7.89L40.15 7.89L40.15 7.89Q40.64 8.75 40.64 9.84L40.64 9.84L40.64 9.84Q40.64 10.93 40.15 11.79L40.15 11.79L40.15 11.79Q39.65 12.66 38.77 13.15L38.77 13.15L38.77 13.15Q37.90 13.64 36.79 13.64L36.79 13.64ZM36.79 12.46L36.79 12.46Q37.51 12.46 38.07 12.13L38.07 12.13L38.07 12.13Q38.64 11.80 38.96 11.21L38.96 11.21L38.96 11.21Q39.28 10.61 39.28 9.84L39.28 9.84L39.28 9.84Q39.28 9.07 38.96 8.48L38.96 8.48L38.96 8.48Q38.64 7.88 38.07 7.56L38.07 7.56L38.07 7.56Q37.51 7.24 36.79 7.24L36.79 7.24L36.79 7.24Q36.08 7.24 35.51 7.56L35.51 7.56L35.51 7.56Q34.94 7.88 34.62 8.48L34.62 8.48L34.62 8.48Q34.29 9.07 34.29 9.84L34.29 9.84L34.29 9.84Q34.29 10.61 34.62 11.21L34.62 11.21L34.62 11.21Q34.94 11.80 35.51 12.13L35.51 12.13L35.51 12.13Q36.08 12.46 36.79 12.46L36.79 12.46ZM43.51 12.45L48.01 12.45L48.01 13.55L41.79 13.55L41.79 12.68L46.17 7.24L41.87 7.24L41.87 6.13L47.89 6.13L47.89 7.01L43.51 12.45Z"></path></g><defs data-v-fde0c5aa=""><linearGradient data-v-fde0c5aa="" gradientTransform="rotate(25)" id="2568a8f0-665e-4406-9c24-feaa489dc1eb" x1="0%" y1="0%" x2="100%" y2="0%"><stop data-v-fde0c5aa="" offset="0%" stop-color="#B4373D" stop-opacity="1"></stop><stop data-v-fde0c5aa="" offset="100%" stop-color="#B23ACB" stop-opacity="1"></stop></linearGradient></defs><g data-v-fde0c5aa="" id="f88808a0-3d55-46ca-971e-c137ff9bcf9f" stroke="none" fill="url(#2568a8f0-665e-4406-9c24-feaa489dc1eb)" transform="matrix(0.9694074988365173,0,0,0.9694074988365173,35.15296252717194,101.52941633493867)"><path d="M23.943 30.807L5 50.001l18.942 19.192a4.386 4.386 0 0 0 6.258.002 4.522 4.522 0 0 0 .002-6.338L18.193 50.695l-3.624 2.289 15.634-15.841a4.494 4.494 0 0 0 1.295-3.168 4.5 4.5 0 0 0-1.297-3.17 4.387 4.387 0 0 0-6.258.002zM76.057 30.808L95 50.001 76.058 69.193a4.386 4.386 0 0 1-6.258.002 4.522 4.522 0 0 1-.002-6.338l12.009-12.161 3.624 2.289-15.635-15.841a4.494 4.494 0 0 1-1.295-3.168 4.5 4.5 0 0 1 1.297-3.17 4.386 4.386 0 0 1 6.259.002zM60.899 32.352a4.492 4.492 0 0 0-2.366-2.476 4.386 4.386 0 0 0-5.825 2.288l-13.82 32.062a4.496 4.496 0 0 0-.048 3.422 4.492 4.492 0 0 0 2.366 2.476 4.386 4.386 0 0 0 5.825-2.288l13.82-32.062a4.496 4.496 0 0 0 .048-3.422z"></path></g><!----></svg>